<svg xmlns="http://www.w3.org/2000/svg" viewBox="0 0 512 512"><g data-name="1"><path fill="#3845f6" d="M512 256a254.83 254.83 0 0 1-44.13 143.73q-4.77 7-10 13.71a257.24 257.24 0 0 1-68.29 61 254 254 0 0 1-50.46 23.77q-5.5 1.9-11.12 3.54A255.76 255.76 0 0 1 256 512a259.68 259.68 0 0 1-26-1.3A255.93 255.93 0 0 1 0 256C0 114.62 114.62 0 256 0s256 114.62 256 256Z"/><path fill="#1426c9" d="M109.17 141.45a37.49 37.49 0 0 0-27.59 12.1V141.8A37.59 37.59 0 1 0 44 179.39h27.58v42A37.58 37.58 0 1 0 44 284.47h27.58v80a5 5 0 0 0 10 0V216.63h27.59a37.59 37.59 0 0 0 0-75.18zM44 274.47a27.59 27.59 0 1 1 27.59-27.59v27.59zM16.4 141.8a27.59 27.59 0 1 1 55.18 0v27.59H44a27.62 27.62 0 0 1-27.6-27.59zm92.77 64.83H81.58V179a27.59 27.59 0 1 1 27.59 27.59zm373.42 62.55a24.58 24.58 0 0 0-14.72 4.87v-2.69a24.75 24.75 0 0 0-24.72-24.72 25.25 25.25 0 0 0-4.46.41 37.57 37.57 0 0 0-62.48-39.44v-42h27.59A37.59 37.59 0 1 0 366.21 128v11.75a37.58 37.58 0 1 0-27.59 63.09h27.59v147.85a5 5 0 0 0 10 0v-80h27.59a37.34 37.34 0 0 0 14.92-3.1 24.47 24.47 0 0 0-.28 3.76 24.74 24.74 0 0 0 24.71 24.72h14.72v19a24.71 24.71 0 1 0-14.72 44.56h14.72v53.79q5.22-6.68 10-13.71v-81.1h14.72a24.72 24.72 0 0 0 0-49.43zM376.21 128a27.59 27.59 0 1 1 27.59 27.59h-27.59zm-10 64.84h-27.59a27.59 27.59 0 1 1 27.59-27.59zm91.66 156.79h-14.72a14.72 14.72 0 1 1 14.72-14.71zM403.8 260.7h-27.59v-27.59a27.59 27.59 0 1 1 27.59 27.59zm54.07 25.38h-14.72a14.72 14.72 0 1 1 14.72-14.72zm24.72 22.53h-14.72v-14.72a14.72 14.72 0 1 1 14.72 14.72z"/><path fill="#ea2f4e" d="m109.87 223.989 85.632 49.44-16.89 29.254-85.633-49.44a16.91 16.91 0 0 1-6.218-23.07 16.91 16.91 0 0 1 23.108-6.184Z"/><path fill="#ea2f4e" d="M165.2 301.42h-62a16.91 16.91 0 0 1-16.9-16.91 16.91 16.91 0 0 1 16.91-16.9h62Z"/><path fill="#9eb4f5" d="M389.58 474.42A254.36 254.36 0 0 1 328 501.73c-11.85-6.12-23.65-9.82-34.55-5.76q-8.42 3.15-17.12 5.7-9.31 2.74-18.9 4.77A254.34 254.34 0 0 1 230 510.7 256 256 0 0 1 36.88 388.44l5.38-38.35a69.32 69.32 0 0 1 62-59.37l19.34-1.85 27-2.58 56.4-5.39 57.9 5.55 2.2.21 42.56 4.06a69.33 69.33 0 0 1 62 59.37Z"/><path fill="#9eb4f5" d="m360.7 476.61-21.58 21.58q-5.5 1.9-11.12 3.54A255.76 255.76 0 0 1 256 512a259.68 259.68 0 0 1-26-1.3 253.93 253.93 0 0 1-37.76-6.7l97.92-97.92Z"/><path fill="#ffc32d" d="M186.92 135.41h-27.08a21.51 21.51 0 0 0-21.52 21.52 21.51 21.51 0 0 0 21.52 21.51h26.55"/><path fill="#ffc32d" d="M241.27 158v128.23a37.15 37.15 0 1 1-74.29 0V158Z"/><path fill="#ffa400" d="M241.27 185.6V265a86.24 86.24 0 0 1-58.12-61.75Z"/><path fill="#303660" d="M411.2 79.77a45.65 45.65 0 0 1-45.64 45.64h-45.65V79.77a45.65 45.65 0 0 1 91.29 0Z"/><path fill="#1c1e48" d="M373.21 79.77a45.65 45.65 0 0 1-45.64 45.64h-7.66V79.77a45.65 45.65 0 0 1 26.65-41.51 45.63 45.63 0 0 1 26.65 41.51Z"/><path fill="#ffc32d" d="M339.12 158a85.93 85.93 0 1 1-2.7-21.47 86.07 86.07 0 0 1 2.7 21.47Z"/><path fill="#ffa400" d="M336.42 136.48H169.68a86.21 86.21 0 0 1 60.88-61.62l57.26 4.35a86.25 86.25 0 0 1 48.6 57.27Z"/><path fill="#1c1e48" d="M331.56 27.1v98.31H169.94V27.1a26.94 26.94 0 0 1 53.87 0 26.94 26.94 0 1 0 53.87 0 26.94 26.94 0 0 1 53.88 0Z"/><path fill="#303660" d="M156.98 101.87h220.47l-21.95 23.54H156.98v-23.54z"/><path fill="#303660" d="M134.38 34.13A45.64 45.64 0 0 1 180 79.77v45.64h-45.62a45.64 45.64 0 0 1-45.64-45.64 45.64 45.64 0 0 1 45.64-45.64Z"/><path fill="#fff" d="M315.19 156.91c-2.4 18.84-17.31 33.36-35.35 33.36s-32.95-14.52-35.35-33.36Z"/><path fill="#1c1e48" d="M354.38 177.05h-53.07a18.13 18.13 0 0 1-18.13-18.13 18.13 18.13 0 0 1 18.13-18.08h16.81a36.26 36.26 0 0 1 36.26 36.26Z"/><path fill="#1c1e48" d="M251.56 140.79h16.81a18.13 18.13 0 0 1 18.13 18.13A18.13 18.13 0 0 1 268.37 177H215.3a36.26 36.26 0 0 1 36.26-36.21Z"/><path fill="#ff556b" d="m220.92 379.08 47.64-82.5a19.39 19.39 0 0 0-16.79-29.08H156.5a19.38 19.38 0 0 0-16.79 29.08l47.64 82.5a19.37 19.37 0 0 0 33.57 0Z"/><rect width="77.59" height="19.07" x="367.08" y="443.26" fill="#1c1e48" rx="9.53" transform="rotate(-45 405.87 452.784)"/><path fill="#ffa400" d="m310.05 434.11-26.85-57.45 70.92-10.73"/><path fill="#303660" d="M269.1 337a15 15 0 0 1-21.21 0l-5-5a6.61 6.61 0 0 0-9.35 0 15 15 0 0 1-21.21-21.21 36.64 36.64 0 0 1 51.77 0l5 5a15 15 0 0 1 0 21.21Z"/><path fill="#1c1e48" d="m327.822 284.684 92.433-92.433 30.561 30.561-92.433 92.433z"/><path fill="#303660" d="M321.115 254.877 430.321 145.67l30.56 30.562-109.205 109.205z"/><path fill="#1c1e48" d="m259.797 298.442 67.366-67.366 75.533 75.533-67.366 67.366a53.41 53.41 0 0 1-75.548.014 53.41 53.41 0 0 1 .015-75.547Z"/><path fill="#303660" d="M337.67 343.05a33.12 33.12 0 0 1-46.85-46.84L330.15 255 377 301.8Z"/><path fill="#1c1e48" d="M308.15 317.19a9 9 0 0 1-12.76-12.75L329.33 270l12.75 12.75zm19.95 19.95a9 9 0 0 1-12.75-12.75l33.93-34.46L362 302.69z"/><path fill="#303660" d="M377.39 138.959a15 15 0 0 1 21.213 0l24.785 24.784-21.214 21.213-24.77-24.77a15 15 0 0 1 0-21.213Z"/><path fill="#ffc32d" d="M428.36 407.76a11.48 11.48 0 0 0-13.05-2.24l8.31-8.31c5.9-5.9 6.37-15.55.62-21.59a15.21 15.21 0 0 0-18.14-3l1.59-1.59a15.22 15.22 0 0 0 0-21.52 15.22 15.22 0 0 0-21.52 0l-1.59 1.59a15.21 15.21 0 0 0-3-18.14c-6-5.75-15.69-5.28-21.59.62l-38.3 38.3a56 56 0 0 0 0 79.23l.14.14a56 56 0 0 0 79.23 0l27.3-27.25a11.47 11.47 0 0 0 0-16.24Z"/><path fill="#ffc32d" d="m354.437 339.197 40.871-40.87a14.88 14.88 0 0 1 21.03-.029 14.88 14.88 0 0 1 0 21.044l-40.871 40.87-21.023-21.022-.007.007ZM163.44 375.74l3.19 6.47a11.87 11.87 0 0 0 8.94 6.49l7.13 1a11.87 11.87 0 0 1 6.58 20.3l-5.16 5a11.87 11.87 0 0 0-3.41 10.51l1.22 7.11a11.87 11.87 0 0 1-17.23 12.51l-6.38-3.35a11.86 11.86 0 0 0-11 0l-6.38 3.35a11.87 11.87 0 0 1-17.23-12.51l1.22-7.11a11.87 11.87 0 0 0-3.46-10.51l-5.16-5a11.87 11.87 0 0 1 6.57-20.25l7.14-1a11.87 11.87 0 0 0 8.94-6.49l3.19-6.47a11.87 11.87 0 0 1 21.29-.05Z"/></g></svg>